# xmcd
#
# Track frame offsets: 
#        150
#        12807
#        33013
#        43023
#        59753
#        69778
#        88546
#        102962
#        119712
#        131364
#        143863
#        161254
#
# Disc length: 2389 seconds
#
# Revision: 0
# Processed by: cddbd v1.5.2PL0 Copyright (c) Steve Scherf et al.
# Submitted via: ExactAudioCopyFreeDBPlugin 1.0
#
DISCID=9809530c
DTITLE=Jay Teter - I'll Be Home For Christmas
DYEAR=1900
DGENRE=Country
TTITLE0=What A Merry Christmas This Could Be
TTITLE1=There's A New Kid In Town
TTITLE2=Frosty The Snowman
TTITLE3=Blue Christmas
TTITLE4=Winter Wonderland
TTITLE5=I'll Be Home Foe Christmas
TTITLE6=Christmas Carol
TTITLE7=It Wasn't His Child
TTITLE8=Santa Claus Is Coming To Town
TTITLE9=Please Come Home For Christmas
TTITLE10=O Come All Ye Faithful
TTITLE11=The Gift
EXTD=
EXTT0=
EXTT1=
EXTT2=
EXTT3=
EXTT4=
EXTT5=
EXTT6=
EXTT7=
EXTT8=
EXTT9=
EXTT10=
EXTT11=
PLAYORDER=
